# xmcd
#
# Track frame offsets:
#      150
#      19808
#      42400
#      65150
#      95063
#      116715
#      141113
#      165718
#      189503
#      212065
#      230795
#      259038
#      283013
#      303753
#      327588
# 
# Disc length: 4571 seconds
#
# Revision: 6
# Processed by: cddbd v1.4PL0 Copyright (c) Steve Scherf et al.
#
# Submitted via: FreeRIP 1.20
#
DISCID=e711d90f
DTITLE=Kenny G - Kenny G Breathless
DYEAR=1992
DGENRE=Smooth Jazz
TTITLE0=The Joy Of Life
TTITLE1=Forever In Love
TTITLE2=In The Rain
TTITLE3=Sentimental
TTITLE4=By The Time  This Nights Is Over
TTITLE5=End Of The Night
TTITLE6=Alone
TTITLE7=Mornig
TTITLE8=Even If My Heart Would Break
TTITLE9=G-bop
TTITLE10=Sister Rose
TTITLE11=A Year Ago
TTITLE12=Homeland
TTITLE13=Natural Ride
TTITLE14=The Wedding Song
EXTD=YEAR: 1992
EXTT0=
EXTT1=
EXTT2=
EXTT3=
EXTT4=with Peabo Bryson
EXTT5=
EXTT6=
EXTT7=
EXTT8=
EXTT9=
EXTT10=
EXTT11=
EXTT12=
EXTT13=
EXTT14=Not on the U.S. album
PLAYORDER=
